<?xml version="1.0" encoding="UTF-8" standalone="no"?>
<!-- Generator: Adobe Illustrator 19.0.0, SVG Export Plug-In . SVG Version: 6.00 Build 0)  -->

<svg
   xmlns:dc="http://purl.org/dc/elements/1.1/"
   xmlns:cc="http://creativecommons.org/ns#"
   xmlns:rdf="http://www.w3.org/1999/02/22-rdf-syntax-ns#"
   xmlns:svg="http://www.w3.org/2000/svg"
   xmlns="http://www.w3.org/2000/svg"
   xmlns:sodipodi="http://sodipodi.sourceforge.net/DTD/sodipodi-0.dtd"
   xmlns:inkscape="http://www.inkscape.org/namespaces/inkscape"
   version="1.1"
   id="Layer_1"
   x="0px"
   y="0px"
   viewBox="0 0 335 50"
   xml:space="preserve"
   inkscape:version="0.91 r13725"
   sodipodi:docname="logotype.svg"
   width="335"
   height="50"><metadata
     id="metadata3462"><rdf:RDF><cc:Work
         rdf:about=""><dc:format>image/svg+xml</dc:format><dc:type
           rdf:resource="http://purl.org/dc/dcmitype/StillImage" /><dc:title></dc:title></cc:Work></rdf:RDF></metadata><defs
     id="defs3460" /><sodipodi:namedview
     pagecolor="#ffffff"
     bordercolor="#666666"
     borderopacity="1"
     objecttolerance="10"
     gridtolerance="10"
     guidetolerance="10"
     inkscape:pageopacity="0"
     inkscape:pageshadow="2"
     inkscape:window-width="1855"
     inkscape:window-height="1056"
     id="namedview3458"
     showgrid="false"
     showguides="true"
     inkscape:guide-bbox="true"
     inkscape:zoom="1.8090551"
     inkscape:cx="292.34854"
     inkscape:cy="99.079387"
     inkscape:window-x="65"
     inkscape:window-y="24"
     inkscape:window-maximized="1"
     inkscape:current-layer="flowRoot3472" /><g
     id="g3428"
     transform="translate(0,-458)" /><g
     id="g3430"
     transform="translate(0,-458)" /><g
     id="g3432"
     transform="translate(0,-458)" /><g
     id="g3434"
     transform="translate(0,-458)" /><g
     id="g3436"
     transform="translate(0,-458)" /><g
     id="g3438"
     transform="translate(0,-458)" /><g
     id="g3440"
     transform="translate(0,-458)" /><g
     id="g3442"
     transform="translate(0,-458)" /><g
     id="g3444"
     transform="translate(0,-458)" /><g
     id="g3446"
     transform="translate(0,-458)" /><g
     id="g3448"
     transform="translate(0,-458)" /><g
     id="g3450"
     transform="translate(0,-458)" /><g
     id="g3452"
     transform="translate(0,-458)" /><g
     id="g3454"
     transform="translate(0,-458)" /><g
     id="g3456"
     transform="translate(0,-458)" /><g
     id="g4313"
     transform="matrix(0.09701413,0,0,0.09701413,2.2923215,-1.7002397)"><path
       inkscape:connector-curvature="0"
       id="circle3420"
       d="M 508,276 A 254,254 0 0 1 254,530 254,254 0 0 1 0,276 254,254 0 0 1 254,22 254,254 0 0 1 508,276 Z"
       style="fill:#f55d53;fill-opacity:1" /><g
       id="g4308"><path
         inkscape:connector-curvature="0"
         id="polygon3422"
         d="M 434.4,288.8 153.2,92.4 168.4,402.8 Z"
         style="fill:#ffffff"
         transform="translate(0,22)" /><path
         inkscape:connector-curvature="0"
         id="polygon3424"
         d="M 298,347.2 312,406 348.8,325.2 153.2,92.4 Z"
         style="fill:#e6e9ee"
         transform="translate(0,22)" /><path
         inkscape:connector-curvature="0"
         id="polygon3426"
         d="M 312,406.8 298,347.2 268.4,360 Z"
         style="fill:#acb3ba"
         transform="translate(0,22)" /></g></g><g
     id="flowRoot3472"
     style="font-style:normal;font-variant:normal;font-weight:normal;font-stretch:normal;font-size:160.78204346px;line-height:125%;font-family:Garuda;-inkscape-font-specification:Garuda;letter-spacing:0px;word-spacing:0px;fill:#f5f5f5;fill-opacity:1;stroke:#f5f5f5;stroke-width:15.59799957;stroke-linecap:butt;stroke-linejoin:miter;stroke-miterlimit:4;stroke-dasharray:none;stroke-opacity:1"
     transform="matrix(0.09365262,0,0,0.09365262,3.4167163,0.63861411)"><path
       inkscape:connector-curvature="0"
       id="path4368"
       style="font-style:normal;font-variant:normal;font-weight:normal;font-stretch:normal;font-size:723.51922607px;font-family:'Ubuntu Condensed';-inkscape-font-specification:'Ubuntu Condensed, ';fill:#f5f5f5;fill-opacity:1;stroke:#f5f5f5;stroke-width:15.59799957;stroke-miterlimit:4;stroke-dasharray:none;stroke-opacity:1"
       d="m 639.93186,17.022507 q 50.64635,-12.2998269 97.6751,-12.2998269 37.623,0 68.01081,8.6822309 30.38781,8.682231 52.09338,27.49373 21.70558,18.8115 33.28189,48.475789 12.29982,29.66429 12.29982,71.6284 0,52.09339 -20.25854,84.65175 -19.53501,31.83485 -53.54042,48.47579 8.68223,14.47039 21.70558,39.79356 13.74686,24.59965 27.49373,54.98746 14.47038,29.66429 27.49373,61.49913 13.74687,31.83485 23.15262,60.77562 l -65.11673,0 q -7.95872,-21.70558 -20.25854,-49.19931 -11.57631,-27.49373 -24.59966,-54.26394 -13.02334,-27.49373 -26.04669,-52.09339 -13.02335,-25.32317 -23.15261,-42.68763 -11.57631,1.44704 -23.87614,2.17056 -12.29983,0.72352 -24.59965,0.72352 l -18.08798,0 0,195.35019 -63.6697,0 0,-494.163633 z m 63.6697,245.273013 27.49373,0 q 49.92282,0 76.69304,-22.42909 26.77021,-23.15262 26.77021,-78.8636 0,-28.21725 -7.2352,-47.02875 -6.51167,-19.535016 -19.53501,-30.387804 -12.29983,-11.576308 -30.38781,-16.640942 -17.36446,-5.064635 -39.07004,-5.064635 -18.8115,0 -34.72892,2.170558 l 0,198.244263 z" /><path
       inkscape:connector-curvature="0"
       id="path4370"
       style="font-style:normal;font-variant:normal;font-weight:normal;font-stretch:normal;font-size:723.51922607px;font-family:'Ubuntu Condensed';-inkscape-font-specification:'Ubuntu Condensed, ';fill:#f5f5f5;fill-opacity:1;stroke:#f5f5f5;stroke-width:15.59799957;stroke-miterlimit:4;stroke-dasharray:none;stroke-opacity:1"
       d="m 1011.5834,511.18614 0,-501.3988253 225.0144,0 0,55.7109803 -159.8977,0 0,155.556635 144.7038,0 0,54.26394 -144.7038,0 0,180.15629 171.474,0 0,55.71098 -236.5907,0 z" /><path
       inkscape:connector-curvature="0"
       id="path4372"
       style="font-style:normal;font-variant:normal;font-weight:normal;font-stretch:normal;font-size:723.51922607px;font-family:'Ubuntu Condensed';-inkscape-font-specification:'Ubuntu Condensed, ';fill:#f5f5f5;fill-opacity:1;stroke:#f5f5f5;stroke-width:15.59799957;stroke-miterlimit:4;stroke-dasharray:none;stroke-opacity:1"
       d="m 1515.2093,441.72829 q -14.4704,-52.09338 -29.6643,-99.84565 -15.1939,-47.75227 -29.6643,-89.71638 -13.7468,-42.68764 -26.7702,-77.41656 -13.0233,-34.72892 -23.8761,-60.77562 -2.8941,41.2406 -5.0647,91.16343 -1.447,49.1993 -3.6176,101.29269 -1.447,52.09338 -2.894,104.91029 -0.7235,52.09338 -1.4471,99.84565 l -62.2226,0 q 2.1705,-65.11673 4.3411,-130.95698 2.1706,-66.56377 5.0646,-130.23346 3.6176,-64.39321 7.2352,-125.16883 4.3411,-60.775613 9.4058,-115.0395553 l 64.3932,0 q 13.0233,31.1113263 29.6643,74.5224803 16.6409,42.687635 33.2819,89.716385 17.3644,47.02875 33.2818,94.0575 15.9175,47.02875 27.4938,86.09879 11.5763,-39.07004 26.7702,-86.09879 15.1939,-47.02875 31.8348,-94.0575 16.641,-47.02875 32.5584,-89.716385 16.6409,-43.411154 29.6643,-74.5224803 l 64.3932,0 q 5.0646,54.2639423 8.6822,115.0395553 4.3411,60.77562 7.2352,125.16883 3.6176,63.66969 5.7882,130.23346 2.1705,65.84025 4.3411,130.95698 l -62.2227,0 q -1.447,-47.75227 -2.894,-100.56917 -0.7236,-52.81691 -2.8941,-105.63381 -1.4471,-53.54042 -3.6176,-103.46325 -2.1706,-50.64635 -5.0647,-92.61046 -6.5116,18.08798 -16.6409,45.58171 -9.4057,26.77021 -20.2585,58.60506 -10.1293,31.83484 -21.7056,65.84025 -10.8528,33.28188 -20.9821,64.39321 -9.4057,31.11132 -17.3644,57.15802 -7.2352,25.32317 -11.5763,41.24059 l -54.9875,0 z" /><path
       inkscape:connector-curvature="0"
       id="path4374"
       style="font-style:normal;font-variant:normal;font-weight:normal;font-stretch:normal;font-size:723.51922607px;font-family:'Ubuntu Condensed';-inkscape-font-specification:'Ubuntu Condensed, ';fill:#f5f5f5;fill-opacity:1;stroke:#f5f5f5;stroke-width:15.59799957;stroke-miterlimit:4;stroke-dasharray:none;stroke-opacity:1"
       d="m 1866.5231,9.7873147 65.1167,0 0,501.3988253 -65.1167,0 0,-501.3988253 z" /><path
       inkscape:connector-curvature="0"
       id="path4376"
       style="font-style:normal;font-variant:normal;font-weight:normal;font-stretch:normal;font-size:723.51922607px;font-family:'Ubuntu Condensed';-inkscape-font-specification:'Ubuntu Condensed, ';fill:#f5f5f5;fill-opacity:1;stroke:#f5f5f5;stroke-width:15.59799957;stroke-miterlimit:4;stroke-dasharray:none;stroke-opacity:1"
       d="m 2299.0519,511.18614 q -17.3644,-42.68764 -39.7935,-91.88694 -21.7056,-49.92283 -46.3053,-99.84566 -23.8761,-50.64634 -49.1993,-99.84565 -25.3231,-49.92283 -49.9228,-92.61046 l 0,384.18871 -60.7756,0 0,-501.3988253 54.2639,0 q 27.4938,44.8581923 52.8169,91.8869453 26.0467,47.02875 49.1994,93.33398 23.1526,45.58171 43.4111,90.4399 20.9821,44.13467 38.3465,83.92823 l 0,-359.5890553 60.7756,0 0,501.3988253 -52.8169,0 z" /><path
       inkscape:connector-curvature="0"
       id="path4378"
       style="font-style:normal;font-variant:normal;font-weight:normal;font-stretch:normal;font-size:723.51922607px;font-family:'Ubuntu Condensed';-inkscape-font-specification:'Ubuntu Condensed, ';fill:#f5f5f5;fill-opacity:1;stroke:#f5f5f5;stroke-width:15.59799957;stroke-miterlimit:4;stroke-dasharray:none;stroke-opacity:1"
       d="m 2788.9309,260.12497 q 0,70.18136 -15.1939,119.38067 -14.4704,48.47579 -42.6876,78.86359 -27.4937,30.38781 -67.2873,44.13468 -39.07,13.74686 -87.5458,13.74686 -49.1993,0 -104.1868,-13.02334 l 0,-486.204923 q 27.4937,-5.788154 53.5404,-9.40575 26.0467,-3.6175961 49.9229,-3.6175961 49.1993,0 88.2693,13.7468651 39.7936,13.746865 67.2873,44.134673 28.2172,30.387807 42.6876,79.587111 15.1939,48.47579 15.1939,118.65716 z m -69.4578,0 q 0,-53.54043 -7.9587,-91.16343 -7.9587,-37.623 -24.5997,-61.49913 -16.6409,-23.876134 -44.1346,-34.728923 -26.7703,-10.852788 -64.3933,-10.852788 -10.1292,0 -20.2585,0.723519 -10.1293,0.723519 -20.9821,2.170558 l 0,390.700384 q 10.8528,1.44704 20.9821,2.17056 10.1293,0.72351 19.535,0.72351 38.3465,0 65.1168,-10.85278 26.7702,-10.85279 43.4111,-34.00541 17.3645,-23.87613 25.3232,-61.49913 7.9587,-37.623 7.9587,-91.88694 z" /><path
       inkscape:connector-curvature="0"
       id="path4380"
       style="font-style:normal;font-variant:normal;font-weight:normal;font-stretch:normal;font-size:723.51922607px;font-family:'Ubuntu Condensed';-inkscape-font-specification:'Ubuntu Condensed, ';fill:#f5f5f5;fill-opacity:1;stroke:#f5f5f5;stroke-width:15.59799957;stroke-miterlimit:4;stroke-dasharray:none;stroke-opacity:1"
       d="m 2889.6245,511.18614 0,-501.3988253 225.0145,0 0,55.7109803 -159.8978,0 0,155.556635 144.7039,0 0,54.26394 -144.7039,0 0,180.15629 171.4741,0 0,55.71098 -236.5908,0 z" /><path
       inkscape:connector-curvature="0"
       id="path4382"
       style="font-style:normal;font-variant:normal;font-weight:normal;font-stretch:normal;font-size:723.51922607px;font-family:'Ubuntu Condensed';-inkscape-font-specification:'Ubuntu Condensed, ';fill:#f5f5f5;fill-opacity:1;stroke:#f5f5f5;stroke-width:15.59799957;stroke-miterlimit:4;stroke-dasharray:none;stroke-opacity:1"
       d="m 3218.8823,17.022507 q 50.6464,-12.2998269 97.6751,-12.2998269 37.623,0 68.0108,8.6822309 30.3878,8.682231 52.0934,27.49373 21.7056,18.8115 33.2819,48.475789 12.2998,29.66429 12.2998,71.6284 0,52.09339 -20.2585,84.65175 -19.5351,31.83485 -53.5405,48.47579 8.6823,14.47039 21.7056,39.79356 13.7469,24.59965 27.4937,54.98746 14.4704,29.66429 27.4938,61.49913 13.7468,31.83485 23.1526,60.77562 l -65.1167,0 q -7.9587,-21.70558 -20.2586,-49.19931 -11.5763,-27.49373 -24.5996,-54.26394 -13.0234,-27.49373 -26.0467,-52.09339 -13.0234,-25.32317 -23.1526,-42.68763 -11.5763,1.44704 -23.8762,2.17056 -12.2998,0.72352 -24.5996,0.72352 l -18.088,0 0,195.35019 -63.6697,0 0,-494.163633 z m 63.6697,245.273013 27.4937,0 q 49.9229,0 76.6931,-22.42909 26.7702,-23.15262 26.7702,-78.8636 0,-28.21725 -7.2352,-47.02875 -6.5117,-19.535016 -19.535,-30.387804 -12.2999,-11.576308 -30.3878,-16.640942 -17.3645,-5.064635 -39.0701,-5.064635 -18.8115,0 -34.7289,2.170558 l 0,198.244263 z" /></g></svg>